<svg width="79" height="40" viewBox="0 0 79 40" fill="none" xmlns="http://www.w3.org/2000/svg">
<path d="M74.6545 0.825684H4.87421C2.53135 0.825684 0.63208 2.72488 0.63208 5.06765V35.1799C0.63208 37.5227 2.53135 39.4219 4.87421 39.4219H74.6545C76.9974 39.4219 78.8966 37.5227 78.8966 35.1799V5.06765C78.8966 2.72488 76.9974 0.825684 74.6545 0.825684Z" fill="#FFC450"/>
<path d="M17.3997 34.5067C13.6233 34.5067 10.9955 33.8026 9.51644 32.3942C8.03735 30.9859 7.29733 28.4831 7.29639 24.886V15.3543C7.29639 11.7722 8.0364 9.27411 9.51644 7.86012C10.9965 6.44613 13.6242 5.73914 17.3997 5.73914H20.9348C24.7481 5.73914 27.3876 6.43717 28.8535 7.83325C30.3194 9.22933 31.0481 11.7363 31.0396 15.3543V24.8803C31.0396 28.4765 30.2963 30.9793 28.8097 32.3886C27.323 33.7978 24.6986 34.5039 20.9363 34.5067H17.3997ZM14.1064 8.98424C13.3314 9.17726 12.6108 9.54483 11.9995 10.0589C11.4251 10.572 11.0182 11.246 10.8315 11.9932C10.5523 13.3675 10.4383 14.7702 10.4921 16.1715V24.1323C10.4378 25.5215 10.5517 26.9121 10.8315 28.2739C11.0214 29.0134 11.4276 29.6795 11.9981 30.187C12.6093 30.7015 13.3299 31.0695 14.105 31.263C15.4814 31.5264 16.8831 31.6341 18.2835 31.584H20.0157C21.4218 31.6331 22.829 31.5254 24.2112 31.263C24.9914 31.0719 25.7172 30.7037 26.3323 30.187C26.8876 29.6914 27.2816 29.0408 27.4635 28.3191C27.7379 26.9414 27.8485 25.536 27.793 24.1323V16.1334C27.8497 14.7344 27.7401 13.3337 27.4663 11.9607C27.2793 11.214 26.8724 10.5406 26.2983 10.0278C25.6924 9.52186 24.9776 9.16323 24.2098 8.98C22.8268 8.72409 21.4199 8.61978 20.0143 8.66892H18.2849C16.8847 8.61701 15.483 8.72278 14.1064 8.98424ZM54.7334 34.1603V6.07849H72.2307V9.05918H57.8188V18.2501H71.7995V21.1177H57.8188V34.1603H54.7334ZM34.4022 34.1603V6.07849H51.901V9.05918H37.4877V18.2501H51.4683V21.1177H37.4877V34.1603H34.4022Z" fill="white"/>
</svg>
