<svg width="43" height="35" viewBox="0 0 43 35" fill="none" xmlns="http://www.w3.org/2000/svg">
<path d="M16.6086 35L29.9146 0H26.3352L13.0402 35H16.6086ZM4.20473 17.9284C3.63202 17.3505 3.34542 15.98 3.34493 13.8166V8.03343C3.34493 5.87589 3.64397 4.50643 4.242 3.92504C4.84004 3.34365 6.05242 3.05295 7.87915 3.05295H9.72296C11.5336 3.05295 12.7336 3.33987 13.3228 3.9137C13.9121 4.48754 14.2069 5.86078 14.2074 8.03343V13.8166C14.2074 15.9946 13.9208 17.369 13.3476 17.9397C12.7744 18.5104 11.5662 18.796 9.72296 18.7965H7.87915C6.00275 18.7969 4.77793 18.5075 4.20473 17.9284ZM29.6524 31.083C29.0797 30.5051 28.7931 29.141 28.7926 26.9906V21.1933C28.7926 19.0318 29.0916 17.6599 29.6896 17.0776C30.2877 16.4953 31.5001 16.204 33.3268 16.2035H35.0961C36.9393 16.2035 38.16 16.4949 38.758 17.0776C39.356 17.6603 39.6551 19.0322 39.6551 21.1933V26.9906C39.6551 29.1423 39.3644 30.5065 38.7829 31.083C38.2014 31.6595 36.9725 31.9484 35.0961 31.9497H33.3268C31.4499 31.9484 30.2251 31.6595 29.6524 31.083ZM9.92306 21.8494C12.7769 21.8494 14.7619 21.3254 15.8781 20.2773C16.9943 19.2292 17.5524 17.3281 17.5524 14.5741V7.32203C17.5524 4.56621 16.9899 2.65758 15.865 1.59615C14.74 0.534716 12.7591 0.00311068 9.92235 0.00133273H7.67976C4.843 0.00133273 2.8538 0.540719 1.71228 1.61949C0.570758 2.69826 0 4.59933 0 7.3227V14.5747C0 17.283 0.562299 19.1721 1.68678 20.2419C2.81126 21.3118 4.80791 21.8474 7.67682 21.8487L9.92306 21.8494ZM35.3203 35C38.1736 35 40.1669 34.4702 41.3001 33.4105C42.4334 32.3509 43 30.4491 43 27.7053V20.5153C43 17.7537 42.4292 15.8359 41.2877 14.7621C40.1462 13.6882 38.1571 13.1512 35.3203 13.1512H33.0784C30.2509 13.1512 28.2724 13.6922 27.1431 14.7741C26.0137 15.856 25.4491 17.7699 25.4491 20.516V27.706C25.4491 30.4351 26.0092 32.3331 27.1293 33.3999C28.2493 34.4666 30.2321 35 33.0776 35H35.3203Z" fill="#8B8B8B"/>
</svg>
